#!OML:ASF E:\Style4\Style4.ASF
:FULLY-SPECIFIED
:DEGREES
3752
root -0.199135 17.632 -2.19427 10.4485 6.18739 2.05698
lowerback 18.2021 1.8843 -1.86522
upperback 10.1873 2.19747 -1.12154
thorax 0.711194 1.07493 -0.5043
lowerneck -1.23855 -2.14673 -3.7575
upperneck -0.188505 -2.82886 5.02011
head 0.285988 -1.40047 2.19603
rclavicle 7.05686e-015 7.7526e-015
rhumerus -9.45808 43.9537 -76.1216
rradius 49.7997
rwrist -32.3452
rhand -17.8449 11.3434
rfingers 7.12502
rthumb 8.41998 -18.4688
lclavicle 7.05686e-015 7.7526e-015
lhumerus -16.0467 -54.3991 90.8989
lradius 76.3634
lwrist 17.9788
lhand 12.7546 22.9866
lfingers 7.12502
lthumb 37.7341 48.8576
rfemur -31.2327 -3.60945 19.4024
rtibia 41.2823
rfoot -18.7834 -16.9117
rtoes -7.27425
lfemur -31.041 -2.83459 -20.3151
ltibia 37.7839
lfoot -16.4904 7.60595
ltoes -14.1627
3753
root -0.213498 17.6209 -2.20266 10.4872 6.20733 2.1853
lowerback 18.3453 1.94468 -1.94244
upperback 10.254 2.2617 -1.12328
thorax 0.707737 1.10418 -0.477224
lowerneck -1.4455 -2.22183 -3.76377
upperneck -0.221614 -2.92208 4.89549
head 0.313195 -1.44524 2.15308
rclavicle 8.84592e-015 6.95746e-016
rhumerus -9.32515 42.6243 -76.5288
rradius 49.794
rwrist -32.3423
rhand -18.1923 11.569
rfingers 7.12502
rthumb 8.08476 -18.2563
lclavicle 8.84592e-015 6.95746e-016
lhumerus -17.385 -55.041 91.2203
lradius 77.102
lwrist 18.0063
lhand 13.6442 22.9233
lfingers 7.12502
lthumb 38.5739 48.5641
rfemur -31.4659 -3.40672 19.2819
rtibia 41.5757
rfoot -18.9237 -17.0955
rtoes -6.98903
lfemur -31.2191 -2.8088 -20.4079
ltibia 37.9683
lfoot -16.511 7.45133
ltoes -13.7735
3754
root -0.22647 17.603 -2.21354 10.6313 6.15514 2.33678
lowerback 18.4264 2.02528 -2.07341
upperback 10.2724 2.34375 -1.13557
thorax 0.682133 1.14021 -0.433203
lowerneck -1.49637 -2.29707 -3.67337
upperneck -0.419412 -3.01635 4.65478
head 0.258324 -1.49355 2.0574
rclavicle -7.55382e-015 1.55052e-014
rhumerus -9.24401 41.3595 -77.002
rradius 49.8389
rwrist -32.5833
rhand -18.7239 11.9015
rfingers 7.12502
rthumb 7.57169 -17.943
lclavicle -7.55382e-015 1.55052e-014
lhumerus -18.7422 -55.597 91.5853
lradius 77.8553
lwrist 18.2081
lhand 14.4483 23.2905
lfingers 7.12502
lthumb 39.3321 48.7146
rfemur -31.868 -3.19158 19.1374
rtibia 41.9269
rfoot -19.0277 -17.2413
rtoes -6.76494
lfemur -31.5636 -2.74968 -20.5327
ltibia 38.2342
lfoot -16.5573 7.46231
ltoes -14.0633
3755
root -0.235919 17.5834 -2.22562 10.7276 6.17708 2.32863
lowerback 18.5924 2.07963 -2.01624
upperback 10.2597 2.41769 -1.07826
thorax 0.582918 1.17826 -0.424002
lowerneck -1.50934 -2.3674 -3.52213
upperneck -0.607249 -3.1069 4.31123
head 0.196778 -1.54055 1.91845
rclavicle 3.60794e-014 -1.31198e-014
rhumerus -9.20716 40.2081 -77.4113
rradius 49.9258
rwrist -32.9393
rhand -19.3195 12.3004
rfingers 7.12502
rthumb 6.99673 -17.5639
lclavicle 3.60794e-014 -1.31198e-014
lhumerus -20.2284 -56.1485 92.1198
lradius 78.5049
lwrist 18.6155
lhand 14.7799 23.6377
lfingers 7.12502
lthumb 39.6445 48.97
rfemur -32.2323 -3.06231 19.1732
rtibia 42.31
rfoot -19.1626 -17.386
rtoes -6.72568
lfemur -31.9132 -2.67894 -20.494
ltibia 38.5663
lfoot -16.708 7.3697
ltoes -13.8416
3756
root -0.241007 17.565 -2.23225 10.7961 6.27662 2.32996
lowerback 18.6794 2.10646 -1.86159
upperback 10.2702 2.47508 -1.02161
thorax 0.552647 1.21196 -0.46431
lowerneck -1.58473 -2.43261 -3.49685
upperneck -0.635214 -3.1915 4.0668
head 0.199152 -1.58284 1.83308
rclavicle -5.68524e-014 2.78299e-014
rhumerus -9.18891 39.0861 -77.7799
rradius 49.9958
rwrist -33.3123
rhand -19.8002 12.8493
rfingers 7.12502
rthumb 6.53268 -17.0299
lclavicle -5.68524e-014 2.78299e-014
lhumerus -21.8336 -56.6983 92.8082
lradius 79.0187
lwrist 19.221
lhand 14.3719 23.4148
lfingers 7.12502
lthumb 39.2601 48.8599
rfemur -32.5344 -3.14619 19.2009
rtibia 42.7348
rfoot -19.3727 -17.3608
rtoes -6.7503
lfemur -32.2335 -2.65617 -20.4818
ltibia 38.9595
lfoot -16.8902 7.13555
ltoes -13.3627
3757
root -0.246852 17.5452 -2.23731 10.8124 6.32293 2.34603
lowerback 18.8024 2.18549 -1.70826
upperback 10.2832 2.59857 -0.978685
thorax 0.507615 1.27891 -0.531569
lowerneck -1.68323 -2.51236 -3.53565
upperneck -0.573187 -3.29576 3.90152
head 0.236621 -1.63432 1.78373
rclavicle -2.68359e-014 1.66979e-014
rhumerus -9.29374 37.8966 -78.2506
rradius 50.0882
rwrist -33.7115
rhand -20.4709 13.4492
rfingers 7.12502
rthumb 5.8852 -16.4491
lclavicle -2.68359e-014 1.66979e-014
lhumerus -23.4498 -57.2353 93.5665
lradius 79.4178
lwrist 19.7214
lhand 13.8696 23.1021
lfingers 7.12502
lthumb 38.7866 48.6829
rfemur -32.8055 -3.21706 19.2137
rtibia 43.1992
rfoot -19.5884 -17.315
rtoes -6.84069
lfemur -32.5076 -2.59461 -20.4938
ltibia 39.3922
lfoot -17.0959 7.02236
ltoes -13.7783
3758
root -0.254312 17.5218 -2.2451 10.825 6.37105 2.38217
lowerback 18.9436 2.25689 -1.59432
upperback 10.304 2.70591 -0.950492
thorax 0.461597 1.33664 -0.590176
lowerneck -1.70263 -2.59889 -3.51069
upperneck -0.647839 -3.40947 3.70391
head 0.216577 -1.6918 1.71462
rclavicle 3.04141e-014 -5.1684e-015
rhumerus -9.37501 36.8499 -78.743
rradius 50.2657
rwrist -34.2898
rhand -21.1792 14.1227
rfingers 7.12502
rthumb 5.20131 -15.7934
lclavicle 3.04141e-014 -5.1684e-015
lhumerus -24.9547 -57.6279 94.1964
lradius 79.8191
lwrist 20.0244
lhand 13.663 23.2968
lfingers 7.12502
lthumb 38.5917 48.9326
rfemur -33.1218 -3.28347 19.2192
rtibia 43.7279
rfoot -19.7404 -17.3454
rtoes -7.05624
lfemur -32.816 -2.52076 -20.5241
ltibia 39.8646
lfoot -17.2591 6.98233
ltoes -13.9544
